<?xml version="1.0" standalone="no"?>
<!DOCTYPE svg PUBLIC "-//W3C//DTD SVG 20010904//EN"
 "http://www.w3.org/TR/2001/REC-SVG-20010904/DTD/svg10.dtd">
<svg version="1.0" xmlns="http://www.w3.org/2000/svg"
 width="1280.000000pt" height="500.000000pt" viewBox="0 0 1280.000000 500.000000"
 preserveAspectRatio="xMidYMid meet">
<metadata>
Created by potrace 1.16, written by Peter Selinger 2001-2019
</metadata>
<g transform="translate(0.000000,500.000000) scale(0.100000,-0.100000)"
fill="#000000" stroke="none">
<path d="M4358 4367 c-345 -254 -632 -466 -637 -472 -6 -7 207 -167 625 -470
349 -253 639 -461 644 -463 7 -2 1840 1331 2056 1494 l30 24 380 -281 c208
-155 387 -288 396 -298 16 -15 -7 -34 -369 -296 -212 -154 -391 -283 -397
-286 -6 -4 -137 85 -291 197 -154 113 -287 203 -295 201 -21 -5 -230 -156
-230 -166 0 -14 802 -592 814 -588 19 8 1271 917 1273 925 1 6 -1256 932
-1276 940 -4 1 -475 -339 -1046 -757 l-1040 -759 -51 36 c-499 356 -741 538
-731 549 7 6 185 140 397 297 l385 285 30 -23 c16 -12 146 -109 287 -215 l257
-192 113 82 c62 45 117 85 121 89 8 7 -776 595 -804 604 -8 2 -296 -203 -641
-457z"/>
<path d="M11950 2133 c-100 -53 -148 -166 -116 -274 31 -109 116 -172 230
-171 137 1 236 103 236 243 0 50 -36 133 -71 166 -73 67 -191 82 -279 36z
m200 -28 c89 -46 126 -165 77 -249 -73 -129 -232 -142 -316 -26 -55 76 -49
161 17 232 61 64 147 81 222 43z"/>
<path d="M11980 1925 l0 -135 25 0 c23 0 25 3 25 50 0 38 4 50 15 50 8 0 26
-22 40 -50 20 -40 30 -50 51 -50 22 0 24 2 13 23 -7 12 -20 34 -30 49 -19 26
-19 26 11 56 38 39 40 83 5 117 -21 22 -33 25 -90 25 l-65 0 0 -135z"/>
<path d="M7715 2099 c-292 -39 -563 -172 -747 -367 -84 -89 -141 -186 -181
-304 -30 -90 -31 -99 -32 -268 0 -183 6 -222 55 -352 29 -78 104 -191 176
-263 164 -166 367 -268 639 -322 137 -27 464 -24 600 5 199 43 340 103 471
200 190 142 293 286 350 492 26 95 26 367 0 465 -52 193 -149 330 -331 464
-178 132 -304 191 -491 231 -114 24 -394 35 -509 19z m345 -279 c181 -22 290
-66 429 -170 134 -102 205 -203 242 -348 49 -193 -6 -422 -138 -571 -93 -106
-259 -190 -444 -226 -190 -36 -486 -13 -640 50 -297 120 -464 395 -419 691 32
212 163 376 385 484 178 86 372 116 585 90z"/>
<path d="M1215 2084 c-270 -32 -383 -72 -484 -173 -109 -109 -157 -254 -133
-406 15 -94 47 -159 107 -214 114 -105 311 -149 885 -196 352 -30 434 -42 520
-81 171 -76 199 -262 57 -378 -96 -79 -242 -123 -446 -135 -328 -19 -611 41
-916 195 l-120 60 -83 -108 c-46 -60 -82 -115 -79 -122 14 -37 229 -151 380
-201 204 -68 399 -95 681 -95 365 0 601 56 783 186 154 110 228 302 194 499
-43 245 -255 378 -681 429 -69 8 -228 22 -355 31 -435 29 -557 61 -605 155
-67 132 32 237 270 288 122 25 407 22 546 -6 134 -27 291 -78 428 -138 l101
-45 92 98 c51 54 92 100 93 103 0 10 -168 100 -255 136 -111 45 -278 88 -424
108 -102 15 -462 20 -556 10z"/>
<path d="M2970 1155 l0 -905 155 0 155 0 0 905 0 905 -155 0 -155 0 0 -905z"/>
<path d="M3830 1155 l0 -905 155 0 155 0 2 735 3 735 458 -580 c253 -319 462
-582 466 -585 4 -2 214 257 467 577 l459 581 3 -732 2 -731 155 0 155 0 0 905
0 905 -192 -2 -192 -3 -421 -529 c-232 -292 -426 -531 -431 -533 -5 -1 -200
238 -434 532 l-424 535 -193 0 -193 0 0 -905z"/>
<path d="M9520 1155 l0 -905 155 0 155 0 2 727 3 728 675 -727 675 -727 193
-1 192 0 0 905 0 905 -155 0 -155 0 -2 -727 -3 -726 -680 726 -680 725 -187 1
-188 1 0 -905z"/>
</g>
</svg>
